<svg width="64" height="45" viewBox="0 0 64 45" fill="none" xmlns="http://www.w3.org/2000/svg">
<g clip-path="url(#clip0_2777_15567)">
<path d="M62.5865 7.01875C62.2195 5.66214 61.5034 4.42536 60.5096 3.43157C59.5159 2.43778 58.2791 1.72165 56.9226 1.3545C51.9561 0 31.9675 0 31.9675 0C31.9675 0 11.978 0.0409999 7.01155 1.3955C5.65492 1.76267 4.41816 2.47884 3.42441 3.47268C2.43066 4.46651 1.7146 5.70334 1.34755 7.06C-0.154702 15.8845 -0.737452 29.331 1.3888 37.8025C1.75589 39.1591 2.47196 40.3959 3.46571 41.3897C4.45946 42.3835 5.6962 43.0996 7.0528 43.4668C12.0193 44.8213 32.0083 44.8213 32.0083 44.8213C32.0083 44.8213 51.997 44.8213 56.9633 43.4668C58.3199 43.0996 59.5567 42.3835 60.5505 41.3897C61.5443 40.3959 62.2604 39.1591 62.6275 37.8025C64.212 28.9655 64.7003 15.5273 62.5865 7.01875Z" fill="#FF0000"/>
<path d="M25.6052 32.0156L42.1872 22.4111L25.6052 12.8066V32.0156Z" fill="white"/>
</g>
<defs>
<clipPath id="clip0_2777_15567">
<rect width="64" height="45" fill="white"/>
</clipPath>
</defs>
</svg>
